<svg xmlns="http://www.w3.org/2000/svg"  viewBox="0 0 20 20.19">
    <path fill="#ad2f2f" d="M13.84,19.39A9.94,9.94,0,0,0,17,17.23,10.12,10.12,0,0,0,19.21,6.16,10.26,10.26,0,0,0,13.84.79,10.3,10.3,0,0,0,11.68.15,10.4,10.4,0,0,0,9.91,0,10,10,0,0,0,2.77,3,9.94,9.94,0,0,0,.61,6.16a9.84,9.84,0,0,0-.6,2,.17.17,0,0,0,.17.21H3.44a.17.17,0,0,0,.17-.12A6.58,6.58,0,0,1,8,3.82.17.17,0,0,1,8.17,4V14.83a.18.18,0,0,0,.14.17,6.49,6.49,0,0,0,1.6.19,6.74,6.74,0,0,0,1.63-.2.18.18,0,0,0,.14-.17V4a.17.17,0,0,1,.23-.17,6.58,6.58,0,0,1,4.57,6.37A6.68,6.68,0,0,1,10,16.67,6.6,6.6,0,0,1,3.6,12a.17.17,0,0,0-.16-.12H.18a.18.18,0,0,0-.18.21,10.68,10.68,0,0,0,.61,2A10.08,10.08,0,0,0,6,19.39a10.05,10.05,0,0,0,7.86,0Z"/>
</svg>